<svg width="30" height="39" viewBox="0 0 30 39" fill="none" xmlns="http://www.w3.org/2000/svg">
<path d="M14.5574 12.9055C15.0999 12.9048 15.6304 13.0653 16.0818 13.3667C16.5333 13.6681 16.8853 14.097 17.0934 14.5989C17.3015 15.1009 17.3564 15.6534 17.251 16.1866C17.1456 16.7197 16.8847 17.2096 16.5014 17.5942C16.1181 17.9788 15.6295 18.2408 15.0975 18.3472C14.5654 18.4535 14.0139 18.3993 13.5126 18.1915C13.0114 17.9836 12.5829 17.6315 12.2814 17.1796C11.9799 16.7277 11.819 16.1964 11.819 15.6529C11.819 14.9249 12.1074 14.2266 12.6208 13.7115C13.1343 13.1964 13.8308 12.9065 14.5574 12.9055ZM15.2364 15.8061C15.4026 15.8061 15.565 15.7567 15.7031 15.6641C15.8413 15.5715 15.9488 15.44 16.0123 15.2861C16.0757 15.1322 16.0921 14.9629 16.0594 14.7996C16.0267 14.6364 15.9464 14.4866 15.8286 14.3691C15.7108 14.2516 15.5609 14.1718 15.3979 14.1398C15.2348 14.1078 15.0659 14.1249 14.9126 14.1892C14.7592 14.2534 14.6284 14.3618 14.5366 14.5006C14.4448 14.6394 14.3962 14.8023 14.397 14.9688C14.397 15.0791 14.4187 15.1883 14.4609 15.2901C14.5032 15.3919 14.5651 15.4844 14.6431 15.5622C14.7211 15.64 14.8136 15.7016 14.9154 15.7435C15.0173 15.7853 15.1263 15.8066 15.2364 15.8061Z" fill="white"/>
<path d="M8.89443 31.7595C10.0733 33.3032 10.5658 35.7403 9.21528 37.3364C8.14455 38.5961 6.23068 38.6521 4.81673 38.0055C4.47173 37.8485 4.16013 37.6264 3.89896 37.3514C3.73481 37.1719 3.56692 36.9776 3.41396 36.7944C3.29433 36.6568 3.19621 36.5018 3.12297 36.3346C3.09797 36.2801 3.07678 36.2239 3.05954 36.1664C2.98493 35.8898 3.15654 36.3085 3.21623 36.3608L3.56693 36.5627C3.67735 36.5959 3.79448 36.6 3.90693 36.5744C4.01938 36.5489 4.12332 36.4946 4.20861 36.4169L4.15265 36.4804C4.22354 36.3832 4.231 36.372 4.17877 36.4468L4.10788 36.5514C4.01088 36.701 3.92135 36.8617 3.83927 37.0187C3.64407 37.382 3.48895 37.7655 3.37666 38.1625C3.09685 39.1418 1.56725 38.7269 1.85078 37.7401C2.00701 37.2139 2.21444 36.7043 2.47009 36.2188C2.64475 35.8002 2.9219 35.4326 3.27593 35.1497C3.39356 35.0715 3.52856 35.0235 3.66908 35.0098C3.80959 34.9961 3.9513 35.0172 4.08177 35.0712C4.21214 35.133 4.32529 35.226 4.41119 35.3421C4.49709 35.4582 4.55309 35.5937 4.57423 35.7366L4.64511 35.8113L4.95849 36.1851C5.00407 36.2389 5.05265 36.2901 5.10399 36.3384L5.1898 36.4131C5.06295 36.3421 5.25322 36.4729 5.1898 36.4131C5.31665 36.4842 5.33903 36.5141 5.42111 36.5552C5.50318 36.5963 5.66361 36.6748 5.5778 36.6374C5.63872 36.6549 5.69853 36.6762 5.75688 36.701C5.85234 36.7335 5.94948 36.761 6.04787 36.7832L6.21203 36.8168C6.23814 36.8168 6.37991 36.8467 6.27545 36.8168C6.34379 36.813 6.4123 36.813 6.48064 36.8168C6.57018 36.8168 6.66345 36.8168 6.75671 36.8168C6.84998 36.8168 7.09994 36.7869 6.9246 36.8168C7.11631 36.785 7.30482 36.7362 7.48794 36.6711C7.37975 36.7271 7.59986 36.6337 7.48794 36.6711L7.61106 36.6112L7.72671 36.5402C7.74909 36.5402 7.91325 36.4094 7.84609 36.4617C7.77894 36.5141 7.8834 36.4281 7.89832 36.4131L8.00278 36.3197L8.09978 36.215C8.04009 36.3047 8.17813 36.1178 8.09978 36.215C8.21773 36.0553 8.3027 35.8736 8.34974 35.6805C8.4747 35.2077 8.4747 34.7105 8.34974 34.2377C8.19682 33.6328 7.91561 33.068 7.52525 32.5818C7.42151 32.3989 7.39349 32.1825 7.4472 31.9792C7.50091 31.7758 7.63207 31.6016 7.81252 31.4941C7.9947 31.3929 8.2088 31.3659 8.41031 31.4188C8.61181 31.4717 8.78521 31.6004 8.89443 31.7782V31.7595Z" fill="white"/>
<path d="M17.6765 31.3297C18.639 31.5253 19.5494 31.9227 20.3477 32.4959C21.0466 32.9841 21.6279 33.6227 22.0489 34.3648C22.519 35.2283 22.9629 36.1889 22.8846 37.1982C22.872 37.3714 22.8483 37.5437 22.8137 37.714C22.8049 37.7745 22.7924 37.8344 22.7764 37.8934L22.7503 38.0018C22.7316 37.6766 22.5973 37.4935 22.3511 37.4561L22.2205 37.4224H22.2802C22.1534 37.4598 22.2466 37.3925 22.2802 37.4224C22.4071 37.3851 22.4593 37.3701 22.5153 37.3477C23.023 37.1214 23.5088 36.8486 23.9665 36.5328C24.8283 35.9833 25.623 37.3589 24.7649 37.9046C24.33 38.1927 23.8763 38.4512 23.4069 38.6784C23.001 38.9131 22.5354 39.0235 22.0676 38.9961C21.9307 38.9762 21.7993 38.9289 21.681 38.8572C21.5627 38.7855 21.46 38.6907 21.3789 38.5784C21.2979 38.4662 21.2401 38.3388 21.2091 38.2038C21.1781 38.0688 21.1744 37.9289 21.1983 37.7925C21.3064 37.3298 21.314 36.8492 21.2207 36.3833C20.9947 35.577 20.5701 34.8405 19.9858 34.2415C19.7497 34.0059 19.4838 33.8023 19.1949 33.6359C19.0494 33.5462 18.9002 33.464 18.7472 33.3855L18.5495 33.2883C18.4972 33.2622 18.2734 33.165 18.4189 33.2248C18.042 33.0609 17.6495 32.9356 17.2474 32.851C17.0554 32.7858 16.8955 32.6494 16.8005 32.4699C16.7055 32.2904 16.6826 32.0813 16.7364 31.8854C16.7903 31.6895 16.9169 31.5217 17.0903 31.4163C17.2637 31.3109 17.4707 31.2759 17.669 31.3185L17.6765 31.3297Z" fill="white"/>
<path d="M21.7841 22.553C22.5056 22.7963 23.2799 22.8364 24.0225 22.6689C24.9683 22.4561 25.8403 21.9941 26.5482 21.3307C27.1002 20.8242 27.5708 20.2354 27.9435 19.5851C28.0853 19.3384 28.2196 19.088 28.339 18.8375C28.38 18.7516 28.4173 18.6618 28.4584 18.5759C28.3912 18.7179 28.3987 18.7179 28.4584 18.5946C28.5192 18.3948 28.6538 18.2259 28.8348 18.1223C29.0159 18.0188 29.2295 17.9885 29.4321 18.0376C29.6306 18.0976 29.7979 18.2325 29.8989 18.4139C29.9998 18.5952 30.0264 18.8088 29.9731 19.0095C28.671 22.3736 25.1231 25.2779 21.3625 24.0818C20.3925 23.7753 20.8066 22.2428 21.7841 22.553Z" fill="white"/>
<path d="M7.38324 19.8543C7.33699 19.8585 7.29168 19.8698 7.24894 19.888L0.0224775 22.8783C0.0224775 22.6428 9.39417e-05 22.4073 9.39417e-05 22.1681C-0.00612104 19.4329 0.877981 16.7703 2.51835 14.5839L7.19298 7.2427L10.7484 1.66202C10.9556 1.33085 11.2445 1.05881 11.5873 0.872193C11.9301 0.685577 12.3151 0.590692 12.7052 0.596705C13.0953 0.602717 13.4772 0.709424 13.8141 0.906516C14.151 1.10361 14.4314 1.38442 14.6284 1.72183L17.986 7.43333L22.6868 15.4773C22.8099 15.6791 22.933 15.8847 23.0598 16.094L23.2203 16.3669C24.1451 18.1587 24.6262 20.1471 24.623 22.1644C24.623 29.0757 19.1164 34.6751 12.3116 34.6751C9.35165 34.661 6.49513 33.5828 4.2617 31.6366C2.02827 29.6904 0.566338 27.0057 0.141862 24.0707L7.65559 20.9682C7.78122 20.9356 7.91445 20.9503 8.02999 21.0095C8.14552 21.0688 8.23533 21.1685 8.28235 21.2897C8.33737 21.4165 8.34299 21.5594 8.2981 21.6901C8.25322 21.8209 8.16109 21.9301 8.03986 21.9962L3.70846 23.7754C3.32208 23.9471 3.01351 24.2569 2.84311 24.6445C2.67271 25.032 2.65274 25.4693 2.78709 25.8708C2.92145 26.2723 3.20047 26.6091 3.56959 26.8154C3.9387 27.0217 4.37135 27.0826 4.78291 26.9862C4.82651 26.9808 4.86918 26.9695 4.90976 26.9526L11.2893 24.3174C11.302 24.312 11.3157 24.3093 11.3295 24.3095C11.3432 24.3096 11.3568 24.3125 11.3694 24.3181C11.382 24.3238 11.3933 24.3319 11.4026 24.342C11.412 24.3522 11.4191 24.3642 11.4236 24.3772L11.6885 25.0201C11.715 25.0847 11.7539 25.1434 11.803 25.1929C11.8521 25.2423 11.9104 25.2817 11.9747 25.3086C12.0389 25.3355 12.1079 25.3494 12.1775 25.3496C12.2471 25.3498 12.3162 25.3363 12.3806 25.3098C12.445 25.2833 12.5036 25.2443 12.553 25.1951C12.6024 25.146 12.6416 25.0875 12.6685 25.0231C12.6953 24.9587 12.7093 24.8897 12.7095 24.8199C12.7097 24.7501 12.6962 24.681 12.6697 24.6164L12.4048 23.9698C12.3947 23.9439 12.3949 23.9152 12.4053 23.8894C12.4157 23.8637 12.4356 23.843 12.4608 23.8315L13.0129 23.6035C13.0746 23.5774 13.1304 23.5393 13.1773 23.4915C13.2242 23.4437 13.2612 23.3871 13.2862 23.3249C13.3111 23.2627 13.3236 23.1962 13.3228 23.1292C13.322 23.0622 13.308 22.9959 13.2816 22.9344L13.2368 22.826C13.1861 22.7001 13.088 22.5994 12.9637 22.5455C12.8394 22.4916 12.6989 22.489 12.5727 22.5382L12.0206 22.7662C12.0079 22.7715 11.9942 22.7742 11.9804 22.7741C11.9667 22.774 11.9531 22.771 11.9405 22.7654C11.9279 22.7598 11.9166 22.7517 11.9073 22.7415C11.8979 22.7314 11.8908 22.7194 11.8863 22.7064L11.6475 22.127C11.5941 21.9966 11.4911 21.8929 11.3613 21.8385C11.2316 21.7842 11.0855 21.7838 10.9554 21.8373C10.8253 21.8908 10.7218 21.994 10.6675 22.124C10.6133 22.254 10.6129 22.4003 10.6663 22.5307L10.9051 23.1138C10.9152 23.1396 10.915 23.1684 10.9046 23.1941C10.8942 23.2199 10.8743 23.2406 10.8491 23.2521L4.50684 25.8686C4.38241 25.8901 4.2544 25.8684 4.14388 25.8073C4.03335 25.7462 3.94689 25.6491 3.89873 25.5322C3.85026 25.4249 3.83825 25.3047 3.86453 25.1899C3.89081 25.0751 3.95393 24.9722 4.04422 24.8968H4.06661L8.50247 23.0502C8.54594 23.0311 8.58721 23.0073 8.62558 22.9792C8.99005 22.7819 9.26951 22.4574 9.41085 22.0672C9.5522 21.6771 9.5456 21.2485 9.3923 20.8629C9.239 20.4773 8.94968 20.1616 8.5793 19.9756C8.20893 19.7897 7.78329 19.7465 7.38324 19.8543ZM14.5202 19.4806C15.2877 19.4806 16.038 19.2525 16.6762 18.8252C17.3143 18.3978 17.8116 17.7905 18.1052 17.0799C18.3987 16.3694 18.4753 15.5876 18.3253 14.8334C18.1753 14.0792 17.8054 13.3865 17.2624 12.843C16.7194 12.2995 16.0277 11.9296 15.2748 11.78C14.5219 11.6304 13.7417 11.7079 13.0328 12.0027C12.3239 12.2975 11.7182 12.7964 11.2923 13.4361C10.8664 14.0759 10.6394 14.8279 10.6402 15.5969C10.6392 16.108 10.7388 16.6143 10.9334 17.0868C11.1279 17.5593 11.4136 17.9888 11.774 18.3505C12.1344 18.7123 12.5624 18.9993 13.0336 19.1951C13.5049 19.391 14.01 19.4918 14.5202 19.4918V19.4806Z" fill="white"/>
</svg>
