<svg width="40" height="40" viewBox="0 0 40 40" fill="none" xmlns="http://www.w3.org/2000/svg">
<g clip-path="url(#clip0_994_2)">
<path d="M20.8867 33.5007V33.5268C20.8867 33.7884 21.0988 34.0005 21.3604 34.0005H23.7681C24.0297 34.0005 24.2418 33.7884 24.2418 33.5268V33.5007C24.2418 33.2391 24.0297 33.027 23.7681 33.027H21.3604C21.0988 33.027 20.8867 33.2391 20.8867 33.5007Z" fill="white"/>
<path d="M22.0557 31.9753V34.5829C22.0672 34.7057 22.1242 34.8198 22.2154 34.9029C22.3066 34.9859 22.4256 35.032 22.5489 35.032C22.6723 35.032 22.7912 34.9859 22.8825 34.9029C22.9737 34.8198 23.0306 34.7057 23.0422 34.5829V31.7971C22.7173 31.8765 22.3878 31.936 22.0557 31.9753Z" fill="white"/>
<path d="M21.0433 6.7645C20.8052 6.75989 20.5685 6.80258 20.3471 6.89012C20.1256 6.97766 19.9237 7.1083 19.7531 7.27445C19.5825 7.4406 19.4466 7.63896 19.3532 7.85804C19.2599 8.07711 19.211 8.31254 19.2093 8.55067V18.7202C19.2393 18.8199 19.3008 18.9073 19.3847 18.9692C19.4685 19.0311 19.5701 19.0642 19.6743 19.0635C19.7779 19.0659 19.8793 19.0334 19.9621 18.9711C20.0449 18.9088 20.1042 18.8204 20.1306 18.7202V14.522C20.124 14.4817 20.124 14.4406 20.1306 14.4003C20.1647 14.0419 20.3313 13.709 20.5977 13.4668C20.8641 13.2245 21.2112 13.0903 21.5713 13.0903C21.9314 13.0903 22.2785 13.2245 22.5449 13.4668C22.8113 13.709 22.9778 14.0419 23.012 14.4003C23.0165 14.4378 23.0165 14.4758 23.012 14.5133V31.8101C22.6868 31.8852 22.3573 31.9404 22.0254 31.9753V14.5003C22.0069 14.3917 21.9504 14.2932 21.8661 14.2224C21.7817 14.1515 21.6749 14.1129 21.5648 14.1135C21.4452 14.113 21.3297 14.1573 21.2412 14.2378C21.1527 14.3182 21.0976 14.4289 21.0867 14.5481V18.6289C21.0839 18.9923 20.9453 19.3415 20.6981 19.6079C20.4509 19.8742 20.113 20.0386 19.7509 20.0685C19.3887 20.0985 19.0284 19.9919 18.7409 19.7697C18.4533 19.5476 18.2592 19.2259 18.1967 18.8679C18.1921 18.8318 18.1921 18.7953 18.1967 18.7593V18.7115C18.1967 18.6811 18.1967 18.655 18.1967 18.6289V15.4086C18.1967 11.4972 12.2123 11.2843 12.0298 15.1956C12.0298 15.3347 12.0298 15.4738 12.0298 15.6302V23.2573C12.0411 24.429 12.2834 25.5869 12.7427 26.6649C13.202 27.7428 13.8693 28.7196 14.7064 29.5394C15.5436 30.3593 16.5342 31.006 17.6215 31.4426C18.7089 31.8792 19.8716 32.0971 21.0433 32.0839C23.4065 32.1001 25.6795 31.1771 27.3624 29.5178C29.0453 27.8586 30.0004 25.5989 30.0176 23.2356V15.6085C30.0091 14.4385 29.7702 13.2816 29.3146 12.204C28.8589 11.1264 28.1955 10.149 27.3622 9.32776C26.5288 8.50652 25.5418 7.85745 24.4576 7.41765C23.3734 6.97784 22.2132 6.7559 21.0433 6.7645Z" fill="white"/>
<path d="M16.9448 5.59098C15.5361 6.08542 14.2504 6.87738 13.175 7.913C12.0996 8.94862 11.2599 10.2036 10.7127 11.5927C9.99131 13.4224 10 15.2998 10 17.2424V23.0052C10 25.1781 10.352 27.2859 11.508 29.1894C12.3572 30.572 13.5226 31.7331 14.9083 32.577C16.2941 33.421 17.8604 33.9237 19.4785 34.0438C20.1738 34.1003 20.1695 33.0138 19.4785 32.9573C18.143 32.8505 16.8478 32.449 15.686 31.7817C14.5243 31.1144 13.5248 30.1979 12.7597 29.0982C11.6085 27.3707 11.0237 25.3278 11.0865 23.2529V17.9856C11.0865 16.4819 10.9735 14.9 11.2907 13.4224C11.6236 11.8802 12.3437 10.4482 13.383 9.26134C14.4224 8.07446 15.7469 7.17177 17.2316 6.63835C17.8879 6.40802 17.6054 5.36065 16.9448 5.59098Z" fill="white"/>
<path d="M18.9485 6.26032C19.2965 6.26032 19.5787 5.97819 19.5787 5.63016C19.5787 5.28213 19.2965 5 18.9485 5C18.6005 5 18.3184 5.28213 18.3184 5.63016C18.3184 5.97819 18.6005 6.26032 18.9485 6.26032Z" fill="white"/>
</g>
<defs>
<clipPath id="clip0_994_2">
<rect width="20" height="30.0608" fill="white" transform="translate(10 5)"/>
</clipPath>
</defs>
</svg>
